<?xml version="1.0" encoding="UTF-8"?>
<svg width="512" height="512" viewBox="0 0 512 512" fill="none" xmlns="http://www.w3.org/2000/svg">
    <!-- Background Circle -->
    <circle cx="256" cy="256" r="256" fill="#007BFF"/>
    
    <!-- Car Body -->
    <path d="M396 276c0-8.8-7.2-16-16-16H132c-8.8 0-16 7.2-16 16v80c0 8.8 7.2 16 16 16h248c8.8 0 16-7.2 16-16v-80z" fill="white"/>
    
    <!-- Wheels -->
    <circle cx="172" cy="356" r="32" fill="#2B2B2B"/>
    <circle cx="340" cy="356" r="32" fill="#2B2B2B"/>
    <circle cx="172" cy="356" r="16" fill="#404040"/>
    <circle cx="340" cy="356" r="16" fill="#404040"/>
    
    <!-- Hood and Roof -->
    <path d="M380 260l-40-80H172l-40 80" stroke="white" stroke-width="24" stroke-linecap="round"/>
    
    <!-- Wrench Symbol -->
    <path d="M256 140c-22.1 0-40 17.9-40 40 0 13.3 6.5 25.1 16.5 32.3l-80.3 80.3c-3.1 3.1-3.1 8.2 0 11.3l11.3 11.3c3.1 3.1 8.2 3.1 11.3 0l80.3-80.3c7.2 10 19 16.5 32.3 16.5 22.1 0 40-17.9 40-40s-17.9-40-40-40z" fill="#FFD700"/>
</svg> 