<svg width="512" height="512" viewBox="0 0 512 512" fill="none" xmlns="http://www.w3.org/2000/svg">
    <!-- Car Service Reminder App Icon - Large Version -->
    <rect width="512" height="512" rx="64" fill="#007bff"/>
    
    <!-- Car silhouette -->
    <path d="M128 320 L128 352 C128 366.062 139.938 378 154 378 L176 378 C190.062 378 202 366.062 202 352 L310 352 C310 366.062 321.938 378 336 378 L358 378 C372.062 378 384 366.062 384 352 L384 320 L406 320 C417.046 320 426 311.046 426 300 L426 256 C426 228.115 406.552 204.306 380.8 194.133 L348.267 150.933 C341.76 141.653 331.52 136.533 320.853 136.533 L191.147 136.533 C180.48 136.533 170.24 141.653 163.733 150.933 L131.2 194.133 C105.448 204.306 86 228.115 86 256 L86 300 C86 311.046 94.954 320 106 320 L128 320 Z" fill="white"/>
    
    <!-- Car windows -->
    <path d="M182 192 L330 192 C343.255 192 354 202.745 354 216 L354 234.667 C354 247.922 343.255 258.667 330 258.667 L182 258.667 C168.745 258.667 158 247.922 158 234.667 L158 216 C158 202.745 168.745 192 182 192 Z" fill="#007bff"/>
    
    <!-- Car wheels -->
    <circle cx="192" cy="320" r="32" fill="#495057"/>
    <circle cx="320" cy="320" r="32" fill="#495057"/>
    <circle cx="192" cy="320" r="16" fill="#6c757d"/>
    <circle cx="320" cy="320" r="16" fill="#6c757d"/>
    
    <!-- Service/Gear icon -->
    <circle cx="256" cy="128" r="48" fill="#ffc107"/>
    <path d="M256 96 C261.523 96 266 100.477 266 106 L266 117.333 C274.133 119.467 281.333 123.733 287.333 129.6 L295.733 123.733 C300.8 120.533 307.733 121.867 310.933 126.933 C314.133 132 312.8 138.933 307.733 142.133 L299.333 148 C300.8 156.267 300.8 164.8 299.333 173.067 L307.733 178.933 C312.8 182.133 314.133 189.067 310.933 194.133 C307.733 199.2 300.8 200.533 295.733 197.333 L287.333 191.467 C281.333 197.333 274.133 201.6 266 203.733 L266 213.333 C266 218.856 261.523 223.333 256 223.333 C250.477 223.333 246 218.856 246 213.333 L246 203.733 C237.867 201.6 230.667 197.333 224.667 191.467 L216.267 197.333 C211.2 200.533 204.267 199.2 201.067 194.133 C197.867 189.067 199.2 182.133 204.267 178.933 L212.667 173.067 C211.2 164.8 211.2 156.267 212.667 148 L204.267 142.133 C199.2 138.933 197.867 132 201.067 126.933 C204.267 121.867 211.2 120.533 216.267 123.733 L224.667 129.6 C230.667 123.733 237.867 119.467 246 117.333 L246 106 C246 100.477 250.477 96 256 96 Z" fill="#343a40"/>
    <circle cx="256" cy="128" r="16" fill="#ffc107"/>
    
    <!-- Additional decorative elements -->
    <rect x="158" y="240" width="196" height="8" rx="4" fill="#007bff" opacity="0.5"/>
    <rect x="175" y="270" width="32" height="6" rx="3" fill="#6c757d"/>
    <rect x="305" y="270" width="32" height="6" rx="3" fill="#6c757d"/>
    
    <!-- Notification indicator -->
    <circle cx="400" cy="112" r="24" fill="#dc3545"/>
    <path d="M400 100 L400 112 M400 120 L400 124" stroke="white" stroke-width="4" stroke-linecap="round"/>
</svg>
