<svg width="192" height="192" viewBox="0 0 192 192" fill="none" xmlns="http://www.w3.org/2000/svg">
    <!-- Car Service Reminder App Icon -->
    <rect width="192" height="192" rx="24" fill="#007bff"/>
    
    <!-- Car silhouette -->
    <path d="M48 120 L48 132 C48 137.523 52.477 142 58 142 L66 142 C71.523 142 76 137.523 76 132 L116 132 C116 137.523 120.477 142 126 142 L134 142 C139.523 142 144 137.523 144 132 L144 120 L152 120 C155.314 120 158 117.314 158 114 L158 96 C158 85.543 151.732 76.464 142.8 72.8 L130.4 56.8 C128.16 53.12 124.32 51.2 120.32 51.2 L71.68 51.2 C67.68 51.2 63.84 53.12 61.6 56.8 L49.2 72.8 C40.268 76.464 34 85.543 34 96 L34 114 C34 117.314 36.686 120 40 120 L48 120 Z" fill="white"/>
    
    <!-- Car windows -->
    <path d="M68 72 L124 72 C127.314 72 130 74.686 130 78 L130 88 C130 91.314 127.314 94 124 94 L68 94 C64.686 94 62 91.314 62 88 L62 78 C62 74.686 64.686 72 68 72 Z" fill="#007bff"/>
    
    <!-- Car wheels -->
    <circle cx="72" cy="120" r="12" fill="#495057"/>
    <circle cx="120" cy="120" r="12" fill="#495057"/>
    <circle cx="72" cy="120" r="6" fill="#6c757d"/>
    <circle cx="120" cy="120" r="6" fill="#6c757d"/>
    
    <!-- Gear/Service icon -->
    <circle cx="96" cy="48" r="18" fill="#ffc107"/>
    <path d="M96 36 C98.209 36 100 37.791 100 40 L100 44 C102.8 44.8 105.2 46.4 107 48.6 L110.6 46.4 C112.6 45.2 115.2 45.8 116.4 47.8 C117.6 49.8 117 52.4 115 53.6 L111.4 55.8 C111.8 58.6 111.8 61.4 111.4 64.2 L115 66.4 C117 67.6 117.6 70.2 116.4 72.2 C115.2 74.2 112.6 74.8 110.6 73.6 L107 71.4 C105.2 73.6 102.8 75.2 100 76 L100 80 C100 82.209 98.209 84 96 84 C93.791 84 92 82.209 92 80 L92 76 C89.2 75.2 86.8 73.6 85 71.4 L81.4 73.6 C79.4 74.8 76.8 74.2 75.6 72.2 C74.4 70.2 75 67.6 77 66.4 L80.6 64.2 C80.2 61.4 80.2 58.6 80.6 55.8 L77 53.6 C75 52.4 74.4 49.8 75.6 47.8 C76.8 45.8 79.4 45.2 81.4 46.4 L85 48.6 C86.8 46.4 89.2 44.8 92 44 L92 40 C92 37.791 93.791 36 96 36 Z" fill="#343a40"/>
    <circle cx="96" cy="48" r="6" fill="#ffc107"/>
</svg>
